<?xml version="1.0" standalone="no"?>
<!DOCTYPE svg PUBLIC "-//W3C//DTD SVG 20010904//EN"
 "http://www.w3.org/TR/2001/REC-SVG-20010904/DTD/svg10.dtd">
<svg version="1.0" xmlns="http://www.w3.org/2000/svg"
 width="1280.000000pt" height="1280.000000pt" viewBox="0 0 1280.000000 1280.000000"
 preserveAspectRatio="xMidYMid meet">
<metadata>
Created by potrace 1.11, written by Peter Selinger 2001-2013
</metadata>
<g transform="translate(0.000000,1280.000000) scale(0.100000,-0.100000)"
fill="#000000" stroke="none">
<path d="M6307 10834 c-1 -1 -49 -5 -107 -8 -58 -4 -121 -8 -140 -11 -67 -8
-106 -14 -130 -19 -14 -3 -43 -8 -64 -11 -21 -3 -48 -7 -60 -10 -12 -3 -32 -7
-46 -9 -42 -7 -154 -37 -171 -47 -10 -5 -25 -30 -35 -56 -71 -190 -227 -379
-534 -648 -19 -17 -73 -61 -120 -99 -167 -134 -275 -222 -320 -261 -26 -22
-73 -62 -106 -90 -131 -110 -337 -310 -450 -435 -142 -158 -317 -406 -394
-560 -123 -246 -195 -556 -194 -845 0 -85 12 -244 19 -255 2 -3 6 -23 9 -45
12 -72 38 -155 50 -155 7 0 25 46 41 103 131 470 279 725 614 1057 277 275
552 470 1111 790 373 214 643 388 780 506 14 12 50 43 80 69 161 138 329 330
443 506 106 162 263 499 233 499 -2 0 -27 5 -57 10 -70 13 -441 33 -452 24z"/>
<path d="M8098 9545 c-2 -2 -64 -6 -138 -9 -74 -4 -151 -9 -170 -11 -19 -2
-69 -6 -110 -10 -41 -3 -82 -7 -90 -10 -8 -2 -42 -6 -75 -10 -72 -7 -121 -13
-200 -25 -33 -5 -78 -12 -100 -15 -22 -3 -65 -10 -95 -15 -30 -5 -71 -12 -90
-15 -19 -3 -42 -8 -50 -10 -8 -2 -28 -7 -45 -9 -46 -8 -146 -28 -205 -41 -14
-4 -36 -8 -50 -11 -14 -2 -59 -13 -100 -24 -41 -10 -86 -21 -100 -24 -36 -7
-234 -63 -306 -87 -33 -11 -69 -21 -80 -24 -66 -14 -435 -152 -562 -211 -41
-19 -76 -34 -78 -34 -11 0 -329 -163 -419 -214 -94 -54 -410 -261 -465 -305
-14 -10 -61 -48 -105 -82 -347 -273 -596 -587 -756 -954 -48 -111 -109 -317
-114 -388 -5 -66 32 -209 90 -345 62 -148 192 -359 209 -341 3 2 7 18 10 34 3
17 8 44 11 60 43 230 187 534 354 745 48 61 243 255 311 311 403 328 1000 595
1686 753 140 32 368 77 459 91 22 3 67 10 100 15 33 5 80 12 105 15 25 3 56 8
70 10 14 2 54 6 90 10 36 4 76 8 90 10 14 2 54 6 90 10 36 3 81 8 100 10 19 3
67 7 105 11 39 3 86 7 105 9 68 6 196 16 265 20 39 3 126 8 195 12 159 10 862
10 1000 1 58 -4 140 -11 184 -14 l78 -7 -6 51 c-3 28 -10 62 -16 77 -5 14 -12
38 -15 52 -31 173 -192 560 -330 792 -72 121 -83 131 -147 132 -29 0 -62 3
-73 5 -20 5 -612 13 -617 9z"/>
<path d="M8587 8264 c-1 -1 -76 -5 -167 -8 -91 -4 -185 -9 -210 -11 -25 -2
-79 -6 -120 -9 -41 -3 -93 -8 -115 -11 -22 -2 -69 -7 -105 -10 -36 -3 -78 -8
-95 -10 -29 -4 -152 -20 -230 -30 -21 -3 -50 -7 -64 -10 -14 -2 -44 -7 -66
-10 -22 -4 -78 -13 -125 -22 -47 -8 -96 -17 -110 -20 -14 -2 -59 -11 -100 -20
-41 -8 -86 -17 -100 -20 -76 -14 -376 -90 -505 -128 -884 -261 -1449 -633
-1690 -1113 -89 -178 -129 -351 -127 -557 0 -186 40 -377 113 -548 152 -357
513 -648 924 -743 72 -16 229 -29 245 -19 5 3 -24 38 -64 78 -112 111 -178
222 -231 385 -45 138 -57 248 -41 373 25 199 159 416 351 569 52 41 256 170
269 170 3 0 35 14 73 31 37 17 82 36 98 44 27 11 216 76 240 81 6 2 55 15 110
29 55 15 111 29 125 31 14 3 57 11 95 19 39 8 86 17 105 20 19 3 60 10 90 15
74 12 170 25 275 35 33 4 71 8 85 10 14 2 68 7 120 10 52 4 118 9 145 12 69 7
1089 9 1248 3 71 -3 136 -2 146 1 35 14 131 387 157 609 2 25 9 77 13 115 15
123 4 556 -15 617 -7 23 -21 26 -159 34 -108 6 -583 13 -588 8z"/>
<path d="M11457 4414 c-1 -1 -21 -4 -45 -8 -247 -33 -496 -204 -629 -431 -68
-115 -90 -211 -97 -423 -2 -57 -8 -107 -12 -111 -5 -4 -49 -25 -97 -47 -91
-40 -107 -58 -92 -103 6 -19 14 -21 101 -21 l95 0 -5 -492 c-3 -285 -9 -516
-15 -548 -14 -72 -48 -104 -128 -120 -32 -7 -63 -16 -69 -21 -11 -9 -12 -65
-1 -76 3 -3 55 -4 114 -3 137 3 225 3 496 0 145 -2 222 1 229 8 12 12 14 70 3
81 -4 3 -50 9 -103 12 -119 8 -174 28 -203 76 -30 48 -34 130 -34 661 l0 427
242 0 c133 0 245 4 249 8 14 14 18 137 5 150 -8 8 -82 12 -244 13 -128 1 -238
2 -245 3 -11 1 -12 37 -8 189 4 103 8 201 11 217 38 217 82 283 220 330 65 22
219 22 300 0 68 -18 122 -48 180 -99 47 -41 50 -42 107 -17 53 22 104 65 122
100 44 89 -105 212 -289 238 -31 4 -155 10 -158 7z"/>
<path d="M4475 4296 c-39 -17 -90 -67 -111 -107 -45 -88 38 -220 145 -233 50
-6 124 37 161 92 27 40 31 54 27 94 -10 108 -133 194 -222 154z"/>
<path d="M9870 4295 c-73 -33 -132 -120 -124 -183 11 -88 118 -170 198 -152
48 11 104 55 133 105 38 68 12 155 -63 208 -49 35 -98 42 -144 22z"/>
<path d="M735 4198 c-387 -51 -603 -277 -590 -618 6 -132 55 -238 152 -331 85
-81 175 -134 398 -234 371 -167 474 -234 529 -348 29 -58 39 -156 25 -231 -25
-133 -123 -243 -261 -292 -155 -54 -405 -25 -566 68 -121 69 -196 166 -238
308 -39 130 -39 130 -71 124 -15 -3 -36 -13 -47 -22 -17 -16 -18 -27 -12 -137
4 -66 9 -136 11 -155 2 -19 7 -57 10 -85 3 -27 7 -63 10 -80 2 -16 7 -52 10
-80 11 -93 23 -104 85 -74 19 9 49 15 65 13 25 -2 100 -12 155 -19 151 -21
242 -27 370 -27 140 0 213 6 316 28 268 55 449 223 500 465 11 55 5 199 -11
256 -64 223 -219 346 -675 538 -211 89 -362 186 -406 260 -36 61 -45 99 -45
190 -2 225 160 370 411 367 106 -2 166 -15 256 -58 116 -55 183 -140 236 -299
11 -33 26 -65 34 -71 17 -14 59 -7 75 13 12 13 13 77 3 138 -3 17 -7 105 -8
196 -2 92 -6 171 -10 177 -4 6 -18 8 -34 4 -33 -8 -111 -7 -177 1 -162 21
-399 28 -500 15z"/>
<path d="M7681 4167 c-6 -6 -11 -23 -11 -39 0 -29 13 -35 110 -53 85 -16 130
-55 152 -129 21 -73 14 -1411 -8 -1601 -18 -154 -77 -223 -204 -240 -75 -10
-80 -13 -80 -50 0 -19 6 -37 13 -42 6 -4 73 -5 147 -3 157 6 1180 6 1320 1
122 -5 119 -6 131 26 32 84 96 361 105 457 3 34 8 64 10 67 8 13 -23 38 -53
42 -39 6 -37 8 -73 -94 -66 -185 -157 -280 -297 -309 -27 -5 -61 -12 -78 -16
-16 -3 -136 -8 -265 -10 -294 -4 -304 -1 -325 104 -28 140 -27 1367 1 1609 6
57 33 121 60 144 23 20 74 37 134 45 73 9 92 13 98 18 10 10 3 69 -9 76 -6 5
-48 6 -93 3 -107 -6 -556 -7 -678 0 -63 3 -100 1 -107 -6z"/>
<path d="M4560 3486 c-19 -7 -89 -38 -155 -68 -283 -131 -279 -128 -273 -169
4 -27 17 -34 90 -49 69 -14 103 -45 117 -108 12 -51 9 -763 -3 -817 -25 -111
-70 -154 -179 -170 -39 -6 -50 -12 -58 -33 -5 -13 -7 -32 -4 -42 5 -15 37 -17
404 -16 220 1 402 3 405 6 9 10 14 57 7 69 -4 6 -34 14 -67 17 -86 8 -99 11
-137 29 -41 19 -56 48 -65 129 -16 140 -4 1177 13 1195 2 2 0 12 -6 22 -11 22
-40 23 -89 5z"/>
<path d="M9920 3471 c-100 -43 -155 -69 -276 -127 -102 -49 -112 -56 -116 -84
-5 -35 6 -45 65 -54 57 -9 104 -32 121 -58 27 -42 34 -144 31 -478 -4 -487
-17 -530 -177 -561 -66 -13 -81 -26 -76 -66 l3 -28 405 0 405 0 3 34 c4 43 -4
51 -64 57 -96 10 -109 12 -136 22 -30 12 -56 46 -64 83 -16 78 -22 721 -9 994
4 88 8 189 9 225 l1 65 -30 2 c-16 2 -59 -10 -95 -26z"/>
<path d="M5491 3464 c-92 -16 -151 -37 -217 -79 -174 -111 -225 -339 -114
-508 49 -72 130 -130 310 -219 297 -146 359 -200 364 -322 4 -73 -12 -115 -64
-167 -66 -67 -162 -87 -293 -63 -164 31 -274 128 -327 290 -21 62 -23 64 -55
64 -33 0 -64 -28 -49 -43 4 -3 8 -91 9 -196 2 -104 6 -194 10 -200 4 -7 20 -9
39 -5 18 3 59 1 92 -5 107 -20 187 -26 339 -25 118 1 167 6 228 23 169 45 284
127 334 239 38 82 37 204 0 286 -59 128 -124 180 -407 320 -284 142 -324 178
-327 295 -4 157 114 238 302 207 104 -17 215 -108 268 -220 15 -31 30 -56 34
-57 5 0 19 -2 31 -3 39 -4 52 18 48 82 -9 113 -19 218 -25 257 l-6 39 -70 3
c-39 1 -83 4 -100 7 -70 13 -283 13 -354 0z"/>
<path d="M6755 3465 c-130 -25 -214 -65 -286 -137 -107 -109 -134 -280 -64
-417 44 -88 127 -151 355 -266 114 -58 226 -122 252 -145 101 -87 117 -215 40
-317 -103 -137 -417 -104 -557 59 -29 34 -50 78 -96 196 -6 16 -17 22 -38 22
-46 0 -54 -18 -46 -112 4 -46 7 -136 7 -200 -1 -75 3 -120 10 -124 6 -4 36 -8
67 -9 58 -3 131 -12 172 -21 13 -3 89 -7 169 -9 198 -6 317 17 442 82 82 43
140 100 176 173 24 49 27 66 27 155 0 94 -2 103 -34 162 -38 71 -107 140 -187
188 -31 19 -138 75 -239 124 -255 126 -307 179 -299 304 3 54 40 126 76 149
80 52 219 53 319 2 65 -33 139 -110 174 -183 16 -34 35 -62 42 -62 7 -1 19 -2
26 -3 6 -1 21 2 31 7 17 8 18 18 12 116 -15 241 -21 267 -65 258 -14 -3 -58
-1 -96 4 -124 16 -315 19 -390 4z"/>
<path d="M12069 3456 c-266 -77 -457 -306 -514 -616 -20 -111 -13 -324 15
-425 61 -225 205 -372 410 -420 87 -20 270 -13 365 13 147 41 291 114 373 190
42 39 44 42 37 84 -4 24 -8 44 -10 46 -1 2 -33 -16 -70 -40 -37 -24 -70 -43
-74 -44 -3 0 -24 -8 -46 -18 -164 -71 -373 -66 -497 13 -107 68 -191 228 -213
406 -4 28 -8 60 -10 72 -3 17 2 24 18 28 29 6 300 59 402 78 73 14 116 22 185
33 14 3 61 11 105 19 44 8 100 17 125 20 78 10 80 12 80 58 0 63 -36 192 -72
259 -37 69 -118 156 -181 192 -123 72 -290 92 -428 52z m157 -122 c89 -37 191
-172 201 -268 10 -81 -23 -96 -358 -170 -85 -19 -173 -37 -197 -41 l-42 -7 6
74 c27 320 192 495 390 412z"/>
<path d="M1672 3434 c-15 -28 -1 -58 42 -89 33 -24 53 -53 98 -145 82 -164
239 -560 424 -1068 l48 -134 71 6 c80 8 82 9 131 120 77 176 345 716 355 716
7 0 166 -472 227 -675 l48 -160 64 3 c35 1 73 8 85 16 11 7 36 49 54 92 57
132 108 241 249 539 191 403 335 645 417 697 38 25 50 47 40 78 -6 19 -15 20
-275 20 l-268 0 -6 -24 c-9 -36 3 -56 33 -57 72 -2 138 -25 158 -55 28 -43 -4
-179 -81 -349 -8 -16 -48 -106 -89 -200 -42 -93 -93 -208 -115 -255 -22 -47
-47 -103 -56 -125 -13 -31 -19 -37 -26 -25 -5 9 -36 101 -70 205 -34 105 -66
199 -71 210 -13 30 -87 276 -118 390 -16 56 -25 111 -22 124 10 38 49 59 120
65 35 2 68 9 73 14 5 5 8 25 6 43 l-3 34 -347 3 -346 2 -7 -30 c-9 -40 -3 -46
54 -60 63 -15 86 -37 126 -124 69 -150 95 -225 86 -249 -9 -22 -63 -135 -228
-477 l-85 -175 -40 100 c-201 511 -288 757 -288 823 0 51 26 77 92 92 92 21
88 18 88 61 l0 39 -320 0 c-282 0 -320 -2 -328 -16z"/>
</g>
</svg>
